<mxfile host="Electron" agent="Mozilla/5.0 (Macintosh; Intel Mac OS X 10_15_7) AppleWebKit/537.36 (KHTML, like Gecko) draw.io/24.7.17 Chrome/128.0.6613.36 Electron/32.0.1 Safari/537.36" version="24.7.17">
  <diagram id="C5RBs43oDa-KdzZeNtuy" name="Page-1">
    <mxGraphModel dx="3720" dy="1584" grid="1" gridSize="10" guides="1" tooltips="1" connect="1" arrows="1" fold="1" page="1" pageScale="1" pageWidth="827" pageHeight="1169" math="0" shadow="0">
      <root>
        <mxCell id="WIyWlLk6GJQsqaUBKTNV-0" />
        <mxCell id="WIyWlLk6GJQsqaUBKTNV-1" parent="WIyWlLk6GJQsqaUBKTNV-0" />
        <mxCell id="Hn6P5G1HKtUDjNurCeAj-1" value="" style="edgeStyle=orthogonalEdgeStyle;rounded=0;orthogonalLoop=1;jettySize=auto;html=1;" parent="WIyWlLk6GJQsqaUBKTNV-1" source="WIyWlLk6GJQsqaUBKTNV-3" target="Hn6P5G1HKtUDjNurCeAj-0" edge="1">
          <mxGeometry relative="1" as="geometry" />
        </mxCell>
        <mxCell id="WIyWlLk6GJQsqaUBKTNV-3" value="get all active incidents" style="rounded=1;whiteSpace=wrap;html=1;fontSize=12;glass=0;strokeWidth=1;shadow=0;" parent="WIyWlLk6GJQsqaUBKTNV-1" vertex="1">
          <mxGeometry x="160" y="80" width="120" height="40" as="geometry" />
        </mxCell>
        <mxCell id="zMKHfZihKC_UxtLjLU3J-1" value="" style="edgeStyle=orthogonalEdgeStyle;rounded=0;orthogonalLoop=1;jettySize=auto;html=1;" parent="WIyWlLk6GJQsqaUBKTNV-1" source="zMKHfZihKC_UxtLjLU3J-0" target="WIyWlLk6GJQsqaUBKTNV-3" edge="1">
          <mxGeometry relative="1" as="geometry" />
        </mxCell>
        <mxCell id="zMKHfZihKC_UxtLjLU3J-0" value="fill the incident form" style="rounded=1;whiteSpace=wrap;html=1;fontSize=12;glass=0;strokeWidth=1;shadow=0;" parent="WIyWlLk6GJQsqaUBKTNV-1" vertex="1">
          <mxGeometry x="160" width="120" height="40" as="geometry" />
        </mxCell>
        <mxCell id="Hn6P5G1HKtUDjNurCeAj-19" value="" style="edgeStyle=orthogonalEdgeStyle;rounded=0;orthogonalLoop=1;jettySize=auto;html=1;" parent="WIyWlLk6GJQsqaUBKTNV-1" source="Hn6P5G1HKtUDjNurCeAj-0" target="Hn6P5G1HKtUDjNurCeAj-18" edge="1">
          <mxGeometry relative="1" as="geometry" />
        </mxCell>
        <mxCell id="Hn6P5G1HKtUDjNurCeAj-0" value="prepare new_incident" style="whiteSpace=wrap;html=1;rounded=1;glass=0;strokeWidth=1;shadow=0;" parent="WIyWlLk6GJQsqaUBKTNV-1" vertex="1">
          <mxGeometry x="160" y="190" width="120" height="60" as="geometry" />
        </mxCell>
        <mxCell id="Hn6P5G1HKtUDjNurCeAj-21" value="" style="edgeStyle=orthogonalEdgeStyle;rounded=0;orthogonalLoop=1;jettySize=auto;html=1;" parent="WIyWlLk6GJQsqaUBKTNV-1" source="Hn6P5G1HKtUDjNurCeAj-17" edge="1">
          <mxGeometry relative="1" as="geometry">
            <mxPoint x="400" y="220" as="targetPoint" />
          </mxGeometry>
        </mxCell>
        <mxCell id="Hn6P5G1HKtUDjNurCeAj-17" value="&lt;div style=&quot;background-color:#1e1f22;color:#bcbec4&quot;&gt;&lt;pre style=&quot;font-family:&#39;JetBrains Mono&#39;,monospace;font-size:12.0pt;&quot;&gt;new_incident = Incident(&lt;br&gt;    &lt;span style=&quot;color:#aa4926;&quot;&gt;text&lt;/span&gt;=form.incident_text.data,&lt;br&gt;    &lt;span style=&quot;color:#aa4926;&quot;&gt;impact&lt;/span&gt;=form.incident_impact.data,&lt;br&gt;    &lt;span style=&quot;color:#aa4926;&quot;&gt;start_date&lt;/span&gt;=naive_from_dttz(&lt;br&gt;        form.incident_start.data,&lt;br&gt;        form.timezone.data,&lt;br&gt;    ),&lt;br&gt;    &lt;span style=&quot;color:#aa4926;&quot;&gt;components&lt;/span&gt;=incident_components,&lt;br&gt;    &lt;span style=&quot;color:#aa4926;&quot;&gt;system&lt;/span&gt;=&lt;span style=&quot;color:#cf8e6d;&quot;&gt;False&lt;/span&gt;,&lt;br&gt;)&lt;/pre&gt;&lt;/div&gt;" style="text;html=1;align=center;verticalAlign=middle;resizable=0;points=[];autosize=1;strokeColor=none;fillColor=none;" parent="WIyWlLk6GJQsqaUBKTNV-1" vertex="1">
          <mxGeometry x="447" y="100" width="380" height="240" as="geometry" />
        </mxCell>
        <mxCell id="Hn6P5G1HKtUDjNurCeAj-24" value="" style="edgeStyle=orthogonalEdgeStyle;rounded=0;orthogonalLoop=1;jettySize=auto;html=1;" parent="WIyWlLk6GJQsqaUBKTNV-1" source="Hn6P5G1HKtUDjNurCeAj-18" target="Hn6P5G1HKtUDjNurCeAj-23" edge="1">
          <mxGeometry relative="1" as="geometry" />
        </mxCell>
        <mxCell id="Hn6P5G1HKtUDjNurCeAj-18" value="save new_incident&amp;nbsp;in the db" style="whiteSpace=wrap;html=1;rounded=1;glass=0;strokeWidth=1;shadow=0;" parent="WIyWlLk6GJQsqaUBKTNV-1" vertex="1">
          <mxGeometry x="160" y="330" width="120" height="60" as="geometry" />
        </mxCell>
        <mxCell id="Hn6P5G1HKtUDjNurCeAj-22" value="????" style="text;html=1;align=center;verticalAlign=middle;resizable=0;points=[];autosize=1;strokeColor=none;fillColor=none;" parent="WIyWlLk6GJQsqaUBKTNV-1" vertex="1">
          <mxGeometry x="335" y="348" width="50" height="30" as="geometry" />
        </mxCell>
        <mxCell id="Hn6P5G1HKtUDjNurCeAj-26" value="" style="edgeStyle=orthogonalEdgeStyle;rounded=0;orthogonalLoop=1;jettySize=auto;html=1;entryX=0;entryY=0.5;entryDx=0;entryDy=0;" parent="WIyWlLk6GJQsqaUBKTNV-1" source="Hn6P5G1HKtUDjNurCeAj-23" target="Hn6P5G1HKtUDjNurCeAj-38" edge="1">
          <mxGeometry relative="1" as="geometry" />
        </mxCell>
        <mxCell id="Hn6P5G1HKtUDjNurCeAj-31" value="YES" style="edgeLabel;html=1;align=center;verticalAlign=middle;resizable=0;points=[];" parent="Hn6P5G1HKtUDjNurCeAj-26" vertex="1" connectable="0">
          <mxGeometry x="-0.1268" y="1" relative="1" as="geometry">
            <mxPoint as="offset" />
          </mxGeometry>
        </mxCell>
        <mxCell id="Hn6P5G1HKtUDjNurCeAj-30" value="" style="edgeStyle=orthogonalEdgeStyle;rounded=0;orthogonalLoop=1;jettySize=auto;html=1;" parent="WIyWlLk6GJQsqaUBKTNV-1" source="Hn6P5G1HKtUDjNurCeAj-23" target="Hn6P5G1HKtUDjNurCeAj-29" edge="1">
          <mxGeometry relative="1" as="geometry" />
        </mxCell>
        <mxCell id="Hn6P5G1HKtUDjNurCeAj-40" value="NO" style="edgeLabel;html=1;align=center;verticalAlign=middle;resizable=0;points=[];" parent="Hn6P5G1HKtUDjNurCeAj-30" vertex="1" connectable="0">
          <mxGeometry x="-0.127" y="-2" relative="1" as="geometry">
            <mxPoint as="offset" />
          </mxGeometry>
        </mxCell>
        <mxCell id="Hn6P5G1HKtUDjNurCeAj-23" value="the new_incident&amp;nbsp;is maintenance" style="rhombus;whiteSpace=wrap;html=1;rounded=1;glass=0;strokeWidth=1;shadow=0;" parent="WIyWlLk6GJQsqaUBKTNV-1" vertex="1">
          <mxGeometry x="149.37" y="445" width="141.25" height="130" as="geometry" />
        </mxCell>
        <mxCell id="Hn6P5G1HKtUDjNurCeAj-28" value="" style="edgeStyle=orthogonalEdgeStyle;rounded=0;orthogonalLoop=1;jettySize=auto;html=1;" parent="WIyWlLk6GJQsqaUBKTNV-1" source="Hn6P5G1HKtUDjNurCeAj-25" target="Hn6P5G1HKtUDjNurCeAj-27" edge="1">
          <mxGeometry relative="1" as="geometry" />
        </mxCell>
        <mxCell id="Hn6P5G1HKtUDjNurCeAj-25" value="add status to incident" style="whiteSpace=wrap;html=1;rounded=1;glass=0;strokeWidth=1;shadow=0;" parent="WIyWlLk6GJQsqaUBKTNV-1" vertex="1">
          <mxGeometry x="890" y="480" width="120" height="60" as="geometry" />
        </mxCell>
        <mxCell id="Hn6P5G1HKtUDjNurCeAj-46" style="edgeStyle=orthogonalEdgeStyle;rounded=0;orthogonalLoop=1;jettySize=auto;html=1;exitX=0.5;exitY=1;exitDx=0;exitDy=0;entryX=1;entryY=0.5;entryDx=0;entryDy=0;" parent="WIyWlLk6GJQsqaUBKTNV-1" source="Hn6P5G1HKtUDjNurCeAj-27" target="Hn6P5G1HKtUDjNurCeAj-44" edge="1">
          <mxGeometry relative="1" as="geometry" />
        </mxCell>
        <mxCell id="Hn6P5G1HKtUDjNurCeAj-27" value="save to db" style="whiteSpace=wrap;html=1;rounded=1;glass=0;strokeWidth=1;shadow=0;" parent="WIyWlLk6GJQsqaUBKTNV-1" vertex="1">
          <mxGeometry x="890" y="650" width="120" height="60" as="geometry" />
        </mxCell>
        <mxCell id="Hn6P5G1HKtUDjNurCeAj-35" value="" style="edgeStyle=orthogonalEdgeStyle;rounded=0;orthogonalLoop=1;jettySize=auto;html=1;entryX=0.5;entryY=0;entryDx=0;entryDy=0;" parent="WIyWlLk6GJQsqaUBKTNV-1" source="Hn6P5G1HKtUDjNurCeAj-29" target="CnexepzbgTBgTfKFq8YQ-0" edge="1">
          <mxGeometry relative="1" as="geometry" />
        </mxCell>
        <mxCell id="Hn6P5G1HKtUDjNurCeAj-29" value="get an incident from active incidents" style="whiteSpace=wrap;html=1;rounded=1;glass=0;strokeWidth=1;shadow=0;" parent="WIyWlLk6GJQsqaUBKTNV-1" vertex="1">
          <mxGeometry x="160" y="630" width="120" height="60" as="geometry" />
        </mxCell>
        <mxCell id="Hn6P5G1HKtUDjNurCeAj-32" value="&lt;div style=&quot;background-color:#1e1f22;color:#bcbec4&quot;&gt;&lt;pre style=&quot;font-family:&#39;JetBrains Mono&#39;,monospace;font-size:12.0pt;&quot;&gt;messages_from = []&lt;br&gt;&lt;/pre&gt;&lt;/div&gt;" style="text;html=1;align=center;verticalAlign=middle;resizable=0;points=[];autosize=1;strokeColor=none;fillColor=none;" parent="WIyWlLk6GJQsqaUBKTNV-1" vertex="1">
          <mxGeometry x="-60" y="560" width="200" height="60" as="geometry" />
        </mxCell>
        <mxCell id="Hn6P5G1HKtUDjNurCeAj-33" value="&lt;div style=&quot;background-color:#1e1f22;color:#bcbec4&quot;&gt;&lt;pre style=&quot;font-family:&#39;JetBrains Mono&#39;,monospace;font-size:12.0pt;&quot;&gt;&lt;div&gt;&lt;pre style=&quot;font-family:&#39;JetBrains Mono&#39;,monospace;font-size:12.0pt;&quot;&gt;messages_to = []&lt;br&gt;&lt;/pre&gt;&lt;/div&gt;&lt;/pre&gt;&lt;/div&gt;" style="text;html=1;align=center;verticalAlign=middle;resizable=0;points=[];autosize=1;strokeColor=none;fillColor=none;" parent="WIyWlLk6GJQsqaUBKTNV-1" vertex="1">
          <mxGeometry x="-60" y="690" width="180" height="60" as="geometry" />
        </mxCell>
        <mxCell id="Hn6P5G1HKtUDjNurCeAj-37" value="" style="edgeStyle=orthogonalEdgeStyle;rounded=0;orthogonalLoop=1;jettySize=auto;html=1;" parent="WIyWlLk6GJQsqaUBKTNV-1" source="Hn6P5G1HKtUDjNurCeAj-34" target="Hn6P5G1HKtUDjNurCeAj-36" edge="1">
          <mxGeometry relative="1" as="geometry" />
        </mxCell>
        <mxCell id="Hn6P5G1HKtUDjNurCeAj-34" value="get component from new_incident" style="whiteSpace=wrap;html=1;rounded=1;glass=0;strokeWidth=1;shadow=0;" parent="WIyWlLk6GJQsqaUBKTNV-1" vertex="1">
          <mxGeometry x="159.37" y="970" width="120" height="60" as="geometry" />
        </mxCell>
        <mxCell id="Hn6P5G1HKtUDjNurCeAj-48" value="" style="edgeStyle=orthogonalEdgeStyle;rounded=0;orthogonalLoop=1;jettySize=auto;html=1;entryX=1;entryY=0.5;entryDx=0;entryDy=0;" parent="WIyWlLk6GJQsqaUBKTNV-1" source="Hn6P5G1HKtUDjNurCeAj-36" target="Hn6P5G1HKtUDjNurCeAj-51" edge="1">
          <mxGeometry relative="1" as="geometry">
            <mxPoint x="60" y="970" as="targetPoint" />
          </mxGeometry>
        </mxCell>
        <mxCell id="Hn6P5G1HKtUDjNurCeAj-49" value="NO" style="edgeLabel;html=1;align=center;verticalAlign=middle;resizable=0;points=[];" parent="Hn6P5G1HKtUDjNurCeAj-48" vertex="1" connectable="0">
          <mxGeometry x="0.3037" y="-2" relative="1" as="geometry">
            <mxPoint as="offset" />
          </mxGeometry>
        </mxCell>
        <mxCell id="Hn6P5G1HKtUDjNurCeAj-60" style="edgeStyle=orthogonalEdgeStyle;rounded=0;orthogonalLoop=1;jettySize=auto;html=1;exitX=0.5;exitY=1;exitDx=0;exitDy=0;entryX=0.5;entryY=0;entryDx=0;entryDy=0;" parent="WIyWlLk6GJQsqaUBKTNV-1" source="Hn6P5G1HKtUDjNurCeAj-36" target="Hn6P5G1HKtUDjNurCeAj-59" edge="1">
          <mxGeometry relative="1" as="geometry" />
        </mxCell>
        <mxCell id="Hn6P5G1HKtUDjNurCeAj-36" value="component&lt;div&gt;in the incident&#39;s components&lt;/div&gt;" style="rhombus;whiteSpace=wrap;html=1;rounded=1;glass=0;strokeWidth=1;shadow=0;" parent="WIyWlLk6GJQsqaUBKTNV-1" vertex="1">
          <mxGeometry x="149.37" y="1130" width="140" height="140" as="geometry" />
        </mxCell>
        <mxCell id="Hn6P5G1HKtUDjNurCeAj-39" style="edgeStyle=orthogonalEdgeStyle;rounded=0;orthogonalLoop=1;jettySize=auto;html=1;exitX=1;exitY=0.5;exitDx=0;exitDy=0;entryX=0;entryY=0.5;entryDx=0;entryDy=0;" parent="WIyWlLk6GJQsqaUBKTNV-1" source="Hn6P5G1HKtUDjNurCeAj-38" target="Hn6P5G1HKtUDjNurCeAj-25" edge="1">
          <mxGeometry relative="1" as="geometry" />
        </mxCell>
        <mxCell id="Hn6P5G1HKtUDjNurCeAj-41" value="YES" style="edgeLabel;html=1;align=center;verticalAlign=middle;resizable=0;points=[];" parent="Hn6P5G1HKtUDjNurCeAj-39" vertex="1" connectable="0">
          <mxGeometry x="-0.1852" relative="1" as="geometry">
            <mxPoint as="offset" />
          </mxGeometry>
        </mxCell>
        <mxCell id="Hn6P5G1HKtUDjNurCeAj-45" style="edgeStyle=orthogonalEdgeStyle;rounded=0;orthogonalLoop=1;jettySize=auto;html=1;exitX=0.5;exitY=1;exitDx=0;exitDy=0;entryX=1;entryY=0.25;entryDx=0;entryDy=0;" parent="WIyWlLk6GJQsqaUBKTNV-1" source="Hn6P5G1HKtUDjNurCeAj-38" target="Hn6P5G1HKtUDjNurCeAj-44" edge="1">
          <mxGeometry relative="1" as="geometry" />
        </mxCell>
        <mxCell id="Hn6P5G1HKtUDjNurCeAj-38" value="the new_incident&amp;nbsp;&lt;span style=&quot;background-color: initial;&quot;&gt;has description&lt;/span&gt;" style="rhombus;whiteSpace=wrap;html=1;rounded=1;glass=0;strokeWidth=1;shadow=0;" parent="WIyWlLk6GJQsqaUBKTNV-1" vertex="1">
          <mxGeometry x="640" y="445" width="141.25" height="130" as="geometry" />
        </mxCell>
        <mxCell id="Hn6P5G1HKtUDjNurCeAj-44" value="done" style="rounded=1;whiteSpace=wrap;html=1;" parent="WIyWlLk6GJQsqaUBKTNV-1" vertex="1">
          <mxGeometry x="160.37" y="2040" width="120" height="60" as="geometry" />
        </mxCell>
        <mxCell id="Hn6P5G1HKtUDjNurCeAj-53" value="" style="edgeStyle=orthogonalEdgeStyle;rounded=0;orthogonalLoop=1;jettySize=auto;html=1;" parent="WIyWlLk6GJQsqaUBKTNV-1" source="Hn6P5G1HKtUDjNurCeAj-51" target="Hn6P5G1HKtUDjNurCeAj-52" edge="1">
          <mxGeometry relative="1" as="geometry" />
        </mxCell>
        <mxCell id="Hn6P5G1HKtUDjNurCeAj-54" value="NO" style="edgeLabel;html=1;align=center;verticalAlign=middle;resizable=0;points=[];" parent="Hn6P5G1HKtUDjNurCeAj-53" vertex="1" connectable="0">
          <mxGeometry x="-0.5556" y="-4" relative="1" as="geometry">
            <mxPoint as="offset" />
          </mxGeometry>
        </mxCell>
        <mxCell id="Hn6P5G1HKtUDjNurCeAj-51" value="message_to&lt;div&gt;is empty&lt;/div&gt;" style="rhombus;whiteSpace=wrap;html=1;rounded=1;glass=0;strokeWidth=1;shadow=0;" parent="WIyWlLk6GJQsqaUBKTNV-1" vertex="1">
          <mxGeometry x="-240" y="1130" width="140" height="140" as="geometry" />
        </mxCell>
        <mxCell id="CnexepzbgTBgTfKFq8YQ-13" style="edgeStyle=orthogonalEdgeStyle;rounded=0;orthogonalLoop=1;jettySize=auto;html=1;exitX=0.5;exitY=1;exitDx=0;exitDy=0;entryX=0;entryY=0.5;entryDx=0;entryDy=0;" edge="1" parent="WIyWlLk6GJQsqaUBKTNV-1" source="Hn6P5G1HKtUDjNurCeAj-52" target="Hn6P5G1HKtUDjNurCeAj-29">
          <mxGeometry relative="1" as="geometry">
            <Array as="points">
              <mxPoint x="-170" y="1400" />
              <mxPoint x="-290" y="1400" />
              <mxPoint x="-290" y="660" />
            </Array>
          </mxGeometry>
        </mxCell>
        <mxCell id="Hn6P5G1HKtUDjNurCeAj-52" value="update_incident()" style="whiteSpace=wrap;html=1;rounded=1;glass=0;strokeWidth=1;shadow=0;" parent="WIyWlLk6GJQsqaUBKTNV-1" vertex="1">
          <mxGeometry x="-230" y="1320" width="120" height="60" as="geometry" />
        </mxCell>
        <mxCell id="Hn6P5G1HKtUDjNurCeAj-66" value="" style="edgeStyle=orthogonalEdgeStyle;rounded=0;orthogonalLoop=1;jettySize=auto;html=1;" parent="WIyWlLk6GJQsqaUBKTNV-1" source="Hn6P5G1HKtUDjNurCeAj-59" target="Hn6P5G1HKtUDjNurCeAj-65" edge="1">
          <mxGeometry relative="1" as="geometry" />
        </mxCell>
        <mxCell id="Hn6P5G1HKtUDjNurCeAj-67" value="NO" style="edgeLabel;html=1;align=center;verticalAlign=middle;resizable=0;points=[];" parent="Hn6P5G1HKtUDjNurCeAj-66" vertex="1" connectable="0">
          <mxGeometry x="-0.0167" y="-1" relative="1" as="geometry">
            <mxPoint as="offset" />
          </mxGeometry>
        </mxCell>
        <mxCell id="Hn6P5G1HKtUDjNurCeAj-68" value="" style="edgeStyle=orthogonalEdgeStyle;rounded=0;orthogonalLoop=1;jettySize=auto;html=1;" parent="WIyWlLk6GJQsqaUBKTNV-1" source="Hn6P5G1HKtUDjNurCeAj-59" target="Hn6P5G1HKtUDjNurCeAj-61" edge="1">
          <mxGeometry relative="1" as="geometry" />
        </mxCell>
        <mxCell id="Hn6P5G1HKtUDjNurCeAj-59" value="incident has only 1 component" style="rhombus;whiteSpace=wrap;html=1;rounded=1;glass=0;strokeWidth=1;shadow=0;" parent="WIyWlLk6GJQsqaUBKTNV-1" vertex="1">
          <mxGeometry x="149.37" y="1310" width="140" height="140" as="geometry" />
        </mxCell>
        <mxCell id="Hn6P5G1HKtUDjNurCeAj-63" style="edgeStyle=orthogonalEdgeStyle;rounded=0;orthogonalLoop=1;jettySize=auto;html=1;exitX=1;exitY=0.5;exitDx=0;exitDy=0;entryX=1;entryY=0.5;entryDx=0;entryDy=0;" parent="WIyWlLk6GJQsqaUBKTNV-1" source="Hn6P5G1HKtUDjNurCeAj-61" target="Hn6P5G1HKtUDjNurCeAj-29" edge="1">
          <mxGeometry relative="1" as="geometry" />
        </mxCell>
        <mxCell id="Hn6P5G1HKtUDjNurCeAj-61" value="close incident" style="whiteSpace=wrap;html=1;rounded=1;glass=0;strokeWidth=1;shadow=0;" parent="WIyWlLk6GJQsqaUBKTNV-1" vertex="1">
          <mxGeometry x="354" y="1350" width="120" height="60" as="geometry" />
        </mxCell>
        <mxCell id="CnexepzbgTBgTfKFq8YQ-11" style="edgeStyle=orthogonalEdgeStyle;rounded=0;orthogonalLoop=1;jettySize=auto;html=1;exitX=0.5;exitY=1;exitDx=0;exitDy=0;entryX=1;entryY=0.5;entryDx=0;entryDy=0;" edge="1" parent="WIyWlLk6GJQsqaUBKTNV-1" source="Hn6P5G1HKtUDjNurCeAj-65" target="Hn6P5G1HKtUDjNurCeAj-29">
          <mxGeometry relative="1" as="geometry">
            <mxPoint x="570" y="1160" as="targetPoint" />
            <Array as="points">
              <mxPoint x="221" y="1620" />
              <mxPoint x="640" y="1620" />
              <mxPoint x="640" y="660" />
            </Array>
          </mxGeometry>
        </mxCell>
        <mxCell id="Hn6P5G1HKtUDjNurCeAj-65" value="remove component from the incident" style="whiteSpace=wrap;html=1;rounded=1;glass=0;strokeWidth=1;shadow=0;" parent="WIyWlLk6GJQsqaUBKTNV-1" vertex="1">
          <mxGeometry x="160.62" y="1540" width="120" height="60" as="geometry" />
        </mxCell>
        <mxCell id="CnexepzbgTBgTfKFq8YQ-1" style="edgeStyle=orthogonalEdgeStyle;rounded=0;orthogonalLoop=1;jettySize=auto;html=1;exitX=0.5;exitY=1;exitDx=0;exitDy=0;entryX=0.5;entryY=0;entryDx=0;entryDy=0;" edge="1" parent="WIyWlLk6GJQsqaUBKTNV-1" source="CnexepzbgTBgTfKFq8YQ-0" target="Hn6P5G1HKtUDjNurCeAj-34">
          <mxGeometry relative="1" as="geometry" />
        </mxCell>
        <mxCell id="CnexepzbgTBgTfKFq8YQ-2" value="YES" style="edgeLabel;html=1;align=center;verticalAlign=middle;resizable=0;points=[];" vertex="1" connectable="0" parent="CnexepzbgTBgTfKFq8YQ-1">
          <mxGeometry x="0.4362" y="-2" relative="1" as="geometry">
            <mxPoint as="offset" />
          </mxGeometry>
        </mxCell>
        <mxCell id="CnexepzbgTBgTfKFq8YQ-4" style="edgeStyle=orthogonalEdgeStyle;rounded=0;orthogonalLoop=1;jettySize=auto;html=1;exitX=0;exitY=0.5;exitDx=0;exitDy=0;entryX=0.5;entryY=0;entryDx=0;entryDy=0;" edge="1" parent="WIyWlLk6GJQsqaUBKTNV-1" source="CnexepzbgTBgTfKFq8YQ-0" target="CnexepzbgTBgTfKFq8YQ-3">
          <mxGeometry relative="1" as="geometry">
            <Array as="points">
              <mxPoint x="-70" y="830" />
              <mxPoint x="-70" y="1700" />
            </Array>
          </mxGeometry>
        </mxCell>
        <mxCell id="CnexepzbgTBgTfKFq8YQ-0" value="incident exists" style="rhombus;whiteSpace=wrap;html=1;rounded=1;glass=0;strokeWidth=1;shadow=0;" vertex="1" parent="WIyWlLk6GJQsqaUBKTNV-1">
          <mxGeometry x="150.62" y="760" width="140" height="140" as="geometry" />
        </mxCell>
        <mxCell id="CnexepzbgTBgTfKFq8YQ-6" value="" style="edgeStyle=orthogonalEdgeStyle;rounded=0;orthogonalLoop=1;jettySize=auto;html=1;" edge="1" parent="WIyWlLk6GJQsqaUBKTNV-1" source="CnexepzbgTBgTfKFq8YQ-3" target="CnexepzbgTBgTfKFq8YQ-5">
          <mxGeometry relative="1" as="geometry" />
        </mxCell>
        <mxCell id="CnexepzbgTBgTfKFq8YQ-7" value="NO" style="edgeLabel;html=1;align=center;verticalAlign=middle;resizable=0;points=[];" vertex="1" connectable="0" parent="CnexepzbgTBgTfKFq8YQ-6">
          <mxGeometry x="-0.375" y="-3" relative="1" as="geometry">
            <mxPoint x="-1" as="offset" />
          </mxGeometry>
        </mxCell>
        <mxCell id="CnexepzbgTBgTfKFq8YQ-10" style="edgeStyle=orthogonalEdgeStyle;rounded=0;orthogonalLoop=1;jettySize=auto;html=1;exitX=0.5;exitY=1;exitDx=0;exitDy=0;entryX=0.5;entryY=0;entryDx=0;entryDy=0;" edge="1" parent="WIyWlLk6GJQsqaUBKTNV-1" source="CnexepzbgTBgTfKFq8YQ-3" target="CnexepzbgTBgTfKFq8YQ-8">
          <mxGeometry relative="1" as="geometry" />
        </mxCell>
        <mxCell id="CnexepzbgTBgTfKFq8YQ-3" value="message_from&lt;div&gt;is empty&lt;/div&gt;" style="rhombus;whiteSpace=wrap;html=1;rounded=1;glass=0;strokeWidth=1;shadow=0;" vertex="1" parent="WIyWlLk6GJQsqaUBKTNV-1">
          <mxGeometry x="150" y="1700" width="140" height="140" as="geometry" />
        </mxCell>
        <mxCell id="CnexepzbgTBgTfKFq8YQ-9" style="edgeStyle=orthogonalEdgeStyle;rounded=0;orthogonalLoop=1;jettySize=auto;html=1;exitX=0.5;exitY=1;exitDx=0;exitDy=0;entryX=1;entryY=0.5;entryDx=0;entryDy=0;" edge="1" parent="WIyWlLk6GJQsqaUBKTNV-1" source="CnexepzbgTBgTfKFq8YQ-5" target="CnexepzbgTBgTfKFq8YQ-8">
          <mxGeometry relative="1" as="geometry" />
        </mxCell>
        <mxCell id="CnexepzbgTBgTfKFq8YQ-5" value="update_incident()" style="whiteSpace=wrap;html=1;rounded=1;glass=0;strokeWidth=1;shadow=0;" vertex="1" parent="WIyWlLk6GJQsqaUBKTNV-1">
          <mxGeometry x="380" y="1740" width="120" height="60" as="geometry" />
        </mxCell>
        <mxCell id="CnexepzbgTBgTfKFq8YQ-12" style="edgeStyle=orthogonalEdgeStyle;rounded=0;orthogonalLoop=1;jettySize=auto;html=1;exitX=0.5;exitY=1;exitDx=0;exitDy=0;entryX=0.5;entryY=0;entryDx=0;entryDy=0;" edge="1" parent="WIyWlLk6GJQsqaUBKTNV-1" source="CnexepzbgTBgTfKFq8YQ-8" target="Hn6P5G1HKtUDjNurCeAj-44">
          <mxGeometry relative="1" as="geometry" />
        </mxCell>
        <mxCell id="CnexepzbgTBgTfKFq8YQ-8" value="save data" style="whiteSpace=wrap;html=1;rounded=1;glass=0;strokeWidth=1;shadow=0;" vertex="1" parent="WIyWlLk6GJQsqaUBKTNV-1">
          <mxGeometry x="160.62" y="1900" width="120" height="60" as="geometry" />
        </mxCell>
      </root>
    </mxGraphModel>
  </diagram>
</mxfile>
